<?xml version="1.0" encoding="UTF-8" standalone="no"?> <svg xmlns="http://www.w3.org/2000/svg" viewBox="0 0 72.94 72.94"><defs><style>.cls-1{isolation:isolate;}.cls-2{fill:#fff;}.cls-3{fill:#371438;}.cls-4{fill:#dd8136;}.cls-11,.cls-4,.cls-7{opacity:0.5;mix-blend-mode:multiply;}.cls-5{fill:#fffbdc;}.cls-6{fill:#f6f870;}.cls-7{fill:#e8985d;}.cls-8{fill:#ffe5d2;}.cls-9{fill:#ff6161;}.cls-10{fill:#91af77;}.cls-11{fill:#625dc1;}</style></defs><title>Asset 6</title><g class="cls-1"><g id="Layer_2" data-name="Layer 2"><g id="Layer_1-2" data-name="Layer 1"><circle class="cls-2" cx="36.47" cy="36.47" r="35.35"/><path class="cls-3" d="M36.47,72.94A36.47,36.47,0,1,1,72.94,36.47,36.51,36.51,0,0,1,36.47,72.94Zm0-70.7A34.23,34.23,0,1,0,70.7,36.47,34.26,34.26,0,0,0,36.47,2.24Z"/><path class="cls-4" d="M36.13,14.44a21.75,21.75,0,0,1,4.94-.57,21.32,21.32,0,1,1-4.94.57"/><path class="cls-5" d="M32.82,10.58A21.14,21.14,0,0,1,37.76,10a21.36,21.36,0,1,1-4.94.58"/><path class="cls-3" d="M37.76,53.83a22.48,22.48,0,0,1-20.38-32,1.12,1.12,0,1,1,2,.95,20,20,0,0,0-1.89,8.55A20.24,20.24,0,1,0,37.76,11.12l-1,0a1.12,1.12,0,0,1-.12-2.24l1.17,0a22.48,22.48,0,0,1,0,44.95Z"/><path class="cls-3" d="M22.47,17.56a1.09,1.09,0,0,1-.78-.32,1.12,1.12,0,0,1,0-1.58,22.65,22.65,0,0,1,5.47-4.12,1.13,1.13,0,0,1,1.52.46,1.11,1.11,0,0,1-.46,1.51,20.52,20.52,0,0,0-4.93,3.71A1.1,1.1,0,0,1,22.47,17.56Z"/><circle class="cls-6" cx="37.76" cy="32.1" r="11.78" transform="translate(-11.69 35.44) rotate(-44.23)"/><path class="cls-7" d="M40.52,20.65A11.78,11.78,0,0,1,33.71,42a12,12,0,0,1-2.77-.34,11.78,11.78,0,1,0,9.58-21.05Z"/><path class="cls-2" d="M47.33,33.2a2.95,2.95,0,1,1-2.95-3A2.95,2.95,0,0,1,47.33,33.2Z"/><path class="cls-2" d="M37.76,26.2a1.85,1.85,0,1,1-1.84-1.84A1.84,1.84,0,0,1,37.76,26.2Z"/><path class="cls-8" d="M22.44,64.86c-2.28-1.57-.37-3.34-1.75-5.74s-2.59-1.72-4-4.12-.16-3.11-1.53-5.52-2.6-1.71-4-4.12S10,42.91,9.77,40.14c-.1-1.33.1-1.22,1.26-1.88s1.86.56,3-.11.47-1.88,1.62-2.54,1.86.56,3-.11S20,32.23,21.05,33c2.29,1.57.37,3.33,1.75,5.74s2.59,1.71,4,4.12.16,3.11,1.53,5.52,2.6,1.71,4,4.12,1.25,2.45,1.45,5.22c.09,1.33-.11,1.22-1.27,1.88s-1.86-.56-3,.1-.46,1.89-1.62,2.55-2.23-.73-3.17.22C23.39,63.75,23.54,65.62,22.44,64.86Z"/><path class="cls-9" d="M29.45,59.69a1.48,1.48,0,0,1,.53-.17c-1.14-1.41.14-3-1.05-5.11-1.38-2.41-2.6-1.71-4-4.12s-.15-3.11-1.53-5.52-2.6-1.71-4-4.12S18.19,38.2,18,35.7c-.76,0-1.36-.52-2.2-.15-.26.23-.32.52-.26,1.28.2,2.77.07,2.81,1.44,5.22s2.6,1.71,4,4.12.16,3.1,1.53,5.51,2.6,1.71,4,4.12S26,60,28.23,61.55l.18.1C28.75,61,28.58,60.19,29.45,59.69Z"/><path class="cls-9" d="M28.91,60.22a1.43,1.43,0,0,1,.15-.22A1.43,1.43,0,0,0,28.91,60.22Z"/><path class="cls-9" d="M22.33,37.5a2.68,2.68,0,0,0,.07.27A2.68,2.68,0,0,1,22.33,37.5Z"/><path class="cls-9" d="M22.44,37.9c0,.1.06.19.1.29C22.5,38.09,22.47,38,22.44,37.9Z"/><path class="cls-9" d="M22.59,38.31a4.11,4.11,0,0,0,.21.42A4.11,4.11,0,0,1,22.59,38.31Z"/><path class="cls-9" d="M29.82,59.54a1.6,1.6,0,0,0-.37.15A1.6,1.6,0,0,1,29.82,59.54Z"/><path class="cls-9" d="M29.14,59.93a1.67,1.67,0,0,1,.31-.24h0A1.67,1.67,0,0,0,29.14,59.93Z"/><path class="cls-9" d="M33.61,56.06c0,.22,0,.45,0,.73C33.64,56.51,33.63,56.28,33.61,56.06Z"/><path class="cls-9" d="M33.66,56.79c0,.27,0,.57.07.92C33.7,57.36,33.68,57.06,33.66,56.79Z"/><path class="cls-9" d="M25.67,62.13Z"/><path class="cls-9" d="M25.91,62.18h0Z"/><path class="cls-9" d="M33.38,54.72a5.08,5.08,0,0,1,.2,1A5.08,5.08,0,0,0,33.38,54.72Z"/><path class="cls-9" d="M24.66,62.46l.07-.06c-1-1.4.19-3-1-5-1.37-2.41-2.59-1.71-4-4.12s-.16-3.1-1.53-5.51-2.6-1.71-4-4.12S13,41.17,12.81,38.4v-.12h0a2,2,0,0,0-1.78,0c-1.16.66-1.36.55-1.26,1.88.19,2.77.06,2.81,1.44,5.22s2.6,1.71,4,4.12.15,3.11,1.53,5.52,2.6,1.71,4,4.12-.53,4.17,1.75,5.74C23.54,65.62,23.39,63.75,24.66,62.46Z"/><path class="cls-9" d="M33.6,58.83a1.84,1.84,0,0,0,.13-1.12c-.2-2.77-.07-2.81-1.45-5.22s-2.6-1.72-4-4.12-.15-3.11-1.53-5.52-2.6-1.71-4-4.12.54-4.17-1.75-5.74c-.45-.31-.74-.05-1,.41a3.28,3.28,0,0,0,0,.87c.2,2.77.07,2.81,1.45,5.22s2.59,1.71,4,4.12.16,3.11,1.54,5.52,2.59,1.71,4,4.12-.54,4.17,1.75,5.74a.69.69,0,0,0,.53.16,1.42,1.42,0,0,0,.32-.25Z"/><path class="cls-9" d="M19.42,34.66c0-.06.07-.12.1-.19S19.45,34.6,19.42,34.66Z"/><path class="cls-9" d="M22.27,37.06c0,.11,0,.22,0,.33C22.29,37.28,22.28,37.17,22.27,37.06Z"/><path class="cls-10" d="M46,52.3A3.32,3.32,0,1,1,42.68,49,3.32,3.32,0,0,1,46,52.3Z"/><path class="cls-11" d="M44.87,49.83a3.3,3.3,0,0,1-3.08,4.54,3.25,3.25,0,0,1-2.18-.84,3.31,3.31,0,1,0,5.26-3.7Z"/><path class="cls-2" d="M42.77,51.53a.77.77,0,0,1-1.54,0,.77.77,0,0,1,1.54,0Z"/><circle class="cls-10" cx="46.55" cy="45.81" r="3.31"/><path class="cls-11" d="M48.73,43.34A3.14,3.14,0,0,1,49,44.57a3.31,3.31,0,0,1-3.31,3.31A3.25,3.25,0,0,1,43.48,47a3.31,3.31,0,0,0,6.38-1.23A3.26,3.26,0,0,0,48.73,43.34Z"/><circle class="cls-2" cx="45.87" cy="45.04" r="0.77"/><circle class="cls-10" cx="49.76" cy="52.85" r="3.31"/><path class="cls-11" d="M51.94,50.38a3.14,3.14,0,0,1,.25,1.23,3.3,3.3,0,0,1-5.5,2.48,3.31,3.31,0,1,0,5.25-3.71Z"/><path class="cls-2" d="M49.85,52.08a.77.77,0,1,1-1.54,0,.77.77,0,0,1,1.54,0Z"/><circle class="cls-10" cx="55.84" cy="49.54" r="3.31"/><path class="cls-11" d="M58,47.06a3.42,3.42,0,0,1,.24,1.24,3.3,3.3,0,0,1-5.5,2.47A3.31,3.31,0,1,0,58,47.06Z"/><path class="cls-2" d="M55.92,48.77a.77.77,0,1,1-1.53,0,.77.77,0,1,1,1.53,0Z"/><circle class="cls-10" cx="52.52" cy="43.6" r="3.31"/><path class="cls-11" d="M54.71,41.13a3.3,3.3,0,0,1-3.08,4.54,3.25,3.25,0,0,1-2.18-.84,3.31,3.31,0,1,0,5.26-3.7Z"/><path class="cls-2" d="M52.61,42.83a.77.77,0,1,1-1.54,0,.77.77,0,1,1,1.54,0Z"/><path class="cls-10" d="M61.37,41.62a3.31,3.31,0,1,1-1.3-4.51A3.31,3.31,0,0,1,61.37,41.62Z"/><path class="cls-11" d="M61.58,38.9a3.14,3.14,0,0,1-.39,1.2,3.32,3.32,0,0,1-4.5,1.3,3.26,3.26,0,0,1-1.5-1.8,3.31,3.31,0,1,0,6.39-.7Z"/><path class="cls-2" d="M58.92,39.38a.77.77,0,1,1-.3-1A.76.76,0,0,1,58.92,39.38Z"/></g></g></g></svg>